<?xml version="1.0" standalone="no"?>
<!DOCTYPE svg PUBLIC "-//W3C//DTD SVG 20010904//EN"
 "http://www.w3.org/TR/2001/REC-SVG-20010904/DTD/svg10.dtd">
<svg version="1.0" xmlns="http://www.w3.org/2000/svg"
 width="512.000000pt" height="512.000000pt" viewBox="0 0 512.000000 512.000000"
 preserveAspectRatio="xMidYMid meet">
<metadata>
Created by potrace 1.11, written by Peter Selinger 2001-2013
</metadata>
<g transform="translate(0.000000,512.000000) scale(0.100000,-0.100000)"
fill="#000000" stroke="none">
<path d="M1639 5056 c-2 -2 -23 -6 -46 -9 -60 -6 -142 -49 -203 -106 -46 -43
-90 -97 -90 -111 0 -3 33 -6 73 -6 134 -3 198 -19 341 -89 87 -42 173 -119
196 -174 19 -48 -1 -61 -89 -57 -67 4 -82 8 -246 67 -183 66 -374 44 -583 -67
-199 -105 -300 -192 -357 -309 -48 -97 -48 -135 -2 -285 l23 -75 94 -1 c129
-1 176 -9 465 -79 83 -20 159 -38 170 -39 11 -2 52 -9 90 -16 154 -27 258 -8
316 57 56 64 65 120 31 196 -46 103 -147 178 -272 202 -14 3 -36 7 -50 10 -78
17 -368 24 -505 12 -53 -5 -85 22 -85 73 0 48 30 76 110 101 70 21 103 28 175
35 62 6 235 5 255 -1 9 -3 34 -7 55 -9 138 -16 304 -84 394 -163 136 -119 176
-278 116 -468 -44 -141 -165 -240 -323 -262 -82 -11 -317 -3 -341 12 -3 1 -22
6 -41 9 -45 7 -58 10 -155 35 -44 11 -127 31 -185 46 -243 60 -418 29 -544
-99 -46 -47 -127 -176 -110 -176 3 0 1 -6 -5 -14 -14 -16 -17 -108 -7 -156 30
-129 157 -240 341 -296 50 -15 100 -18 305 -19 280 -2 343 -8 457 -41 146 -42
285 -134 348 -229 85 -129 89 -294 11 -455 -34 -71 -138 -185 -195 -214 -133
-69 -277 -48 -379 56 -47 47 -50 60 -22 88 15 15 32 20 63 18 139 -7 254 50
304 151 25 49 24 173 0 219 -16 30 -70 89 -108 118 -47 36 -170 61 -284 58
-137 -4 -361 -4 -399 0 -34 3 -45 -2 -74 -30 -68 -66 -85 -185 -41 -279 19
-41 109 -135 129 -135 15 0 32 -59 25 -88 -15 -71 -78 -78 -164 -19 -46 31
-101 85 -101 100 0 9 -56 -20 -77 -40 -7 -6 -23 -20 -35 -30 -62 -50 -134
-166 -158 -253 -12 -45 -15 -134 -6 -177 8 -35 42 -105 68 -140 34 -44 113
-106 168 -131 82 -37 120 -51 120 -45 0 3 6 1 12 -4 46 -34 272 -18 312 22 8
8 18 15 23 15 8 0 16 6 117 95 32 27 73 56 92 64 32 12 36 12 54 -9 28 -32 22
-139 -9 -195 -55 -96 -198 -187 -332 -212 -72 -13 -239 -7 -299 11 -30 9 -63
18 -73 21 -10 2 -32 11 -49 20 -17 8 -37 15 -43 15 -33 0 -29 -159 5 -211 40
-61 156 -119 266 -134 21 -2 50 -7 64 -10 45 -9 207 -21 390 -30 282 -12 316
-15 411 -30 59 -10 157 -46 204 -75 101 -63 192 -192 181 -257 -2 -15 -5 -33
-5 -40 -2 -22 -55 -72 -95 -88 -46 -19 -149 -26 -189 -13 -24 9 -47 34 -47 53
0 3 23 28 51 55 49 47 51 51 37 72 -22 36 -95 67 -204 87 -152 30 -193 33
-482 46 l-103 4 67 -82 c205 -251 416 -404 610 -442 46 -9 144 -7 204 5 59 11
200 76 240 110 148 127 207 235 210 390 4 147 -76 325 -200 450 -41 41 -86 82
-100 90 -47 26 -102 52 -122 55 -11 2 -29 7 -41 11 -12 4 -98 8 -192 9 -176 1
-205 7 -225 45 -23 42 58 133 159 177 45 20 72 25 136 25 77 -1 202 -30 233
-54 6 -6 12 -8 12 -4 0 9 126 -69 187 -116 l52 -39 61 17 c73 20 96 47 107
125 20 130 -35 285 -145 407 -16 17 -34 32 -40 32 -5 0 -15 6 -21 14 -6 7 -51
31 -99 52 -125 54 -147 81 -116 136 8 15 107 88 119 88 2 0 35 21 72 46 190
129 238 232 237 509 -1 104 -3 115 -33 175 -52 108 -168 183 -342 221 -119 26
-144 28 -574 44 -220 9 -311 22 -421 61 -76 27 -127 64 -142 104 -14 37 -7 92
14 108 24 17 74 8 94 -17 26 -32 51 -41 175 -57 22 -3 117 -7 210 -9 231 -5
439 -14 486 -20 23 -3 54 1 74 9 18 8 36 12 39 8 3 -3 6 1 6 8 0 7 3 11 6 7 9
-9 78 28 120 65 181 159 259 575 144 771 -12 21 -52 59 -89 84 -101 72 -116
89 -112 130 0 7 18 21 39 32 75 38 173 13 257 -67 36 -34 47 -51 79 -119 48
-101 60 -159 60 -298 0 -143 -11 -216 -50 -335 -3 -8 -6 -17 -6 -20 0 -3 -17
-37 -38 -75 -46 -90 -99 -160 -160 -215 l-48 -43 96 -48 c182 -90 274 -217
300 -414 10 -73 9 -232 -2 -275 -3 -14 -8 -36 -10 -50 -26 -155 -105 -318
-198 -408 l-41 -40 43 -38 c72 -66 145 -177 195 -299 36 -88 49 -224 31 -333
-15 -92 -88 -193 -170 -234 -23 -11 -42 -21 -43 -23 -2 -1 11 -27 27 -57 33
-60 65 -146 81 -218 6 -25 13 -54 15 -65 7 -29 7 -241 1 -252 -4 -6 -9 -25
-12 -44 -3 -18 -17 -60 -29 -91 l-24 -58 28 -36 c40 -49 73 -73 136 -99 108
-44 232 -13 284 70 l22 35 -23 48 c-13 26 -24 49 -25 52 0 3 -3 12 -7 20 -16
38 -40 172 -39 215 3 146 45 310 108 424 13 24 24 47 24 51 0 4 -14 13 -31 20
-42 18 -123 98 -146 146 -42 85 -54 226 -28 349 22 105 112 268 197 356 32 33
58 62 58 65 0 3 -11 15 -25 26 -63 49 -146 195 -184 323 -18 63 -25 96 -37
175 -6 41 -5 202 2 250 8 63 51 187 76 224 48 70 138 144 225 186 49 24 89 44
91 45 2 2 -20 25 -48 51 -65 60 -109 122 -154 210 -33 66 -74 180 -81 227 -35
231 -22 362 51 512 58 118 180 204 272 191 49 -7 90 -28 99 -52 10 -27 -16
-58 -90 -109 -40 -27 -75 -54 -80 -61 -4 -7 -13 -19 -20 -26 -17 -19 -38 -57
-42 -77 -2 -9 -8 -30 -13 -47 -5 -17 -10 -75 -10 -130 0 -216 66 -401 184
-518 49 -48 58 -54 140 -87 67 -26 86 -29 134 -24 64 8 190 13 456 19 271 7
349 19 394 62 14 13 40 26 57 30 26 5 34 2 48 -20 10 -15 19 -37 19 -49 5 -56
-65 -128 -149 -153 -80 -24 -129 -35 -170 -39 -27 -4 -63 -8 -80 -10 -16 -2
-97 -7 -180 -10 -374 -15 -483 -22 -550 -38 -80 -19 -123 -32 -145 -44 -14 -7
-29 -13 -33 -13 -16 0 -102 -63 -136 -99 -73 -77 -94 -173 -78 -361 19 -216
74 -294 315 -444 101 -63 125 -90 120 -131 -3 -28 -34 -49 -128 -90 -25 -11
-48 -24 -52 -30 -4 -5 -8 -6 -8 -2 0 5 -20 -6 -44 -23 -70 -51 -115 -107 -153
-195 -42 -98 -44 -104 -46 -190 -3 -96 16 -147 62 -173 20 -11 39 -20 44 -20
4 0 20 -3 36 -7 24 -5 40 3 101 49 235 176 478 208 632 83 58 -47 83 -87 74
-120 -11 -44 -40 -51 -221 -52 -99 -1 -189 -7 -215 -15 -25 -7 -46 -12 -48
-11 -1 1 -29 -13 -62 -30 -59 -31 -190 -146 -190 -167 0 -7 -4 -12 -8 -12 -12
0 -87 -147 -112 -220 -59 -175 -13 -361 124 -495 124 -121 261 -177 428 -176
181 1 384 117 590 337 51 54 158 183 158 190 0 4 -99 0 -300 -11 -95 -6 -184
-16 -252 -30 -16 -3 -40 -7 -54 -9 -29 -6 -94 -26 -109 -35 -5 -3 -17 -6 -25
-8 -19 -3 -50 -41 -50 -62 0 -9 14 -27 31 -41 51 -41 59 -51 59 -70 0 -20 -25
-50 -43 -51 -7 0 -28 -2 -47 -4 -88 -9 -202 38 -228 93 -47 101 49 255 210
334 23 12 45 23 48 23 3 1 25 7 50 14 93 27 148 32 465 46 83 4 173 8 200 11
81 6 158 13 185 18 14 2 45 7 70 10 196 30 297 109 304 237 1 30 -1 69 -6 87
l-9 32 -41 -21 c-75 -38 -210 -66 -311 -64 -124 3 -158 10 -252 54 -136 64
-223 164 -227 259 -3 88 5 110 42 117 27 5 55 -13 159 -103 101 -88 161 -114
265 -115 44 -1 99 3 121 7 49 10 145 45 165 60 8 6 31 20 50 30 53 29 130 113
157 173 31 68 38 160 18 234 -9 30 -17 59 -18 64 -1 6 -17 35 -34 65 -37 67
-94 129 -158 175 l-48 33 -51 -52 c-28 -29 -74 -65 -102 -79 -43 -22 -54 -24
-75 -14 -13 7 -32 27 -41 46 -20 39 -9 81 26 105 155 101 192 288 81 410 -17
18 -36 28 -53 28 -125 -1 -352 0 -417 1 -122 3 -189 -10 -281 -55 -37 -18 -91
-76 -112 -122 -89 -188 44 -364 280 -369 43 0 83 -6 88 -12 19 -23 2 -69 -36
-103 -56 -48 -55 -47 -115 -70 -132 -49 -287 9 -393 147 -36 48 -84 138 -91
170 -2 9 -8 37 -14 62 -12 51 -8 156 8 206 26 87 105 187 190 241 14 9 28 19
31 22 9 10 145 69 165 72 11 2 25 6 30 10 6 3 33 9 60 12 28 4 66 10 85 13 19
3 148 7 285 8 245 2 286 6 350 29 260 96 372 293 280 493 -55 120 -143 202
-264 245 -97 34 -285 26 -418 -18 -24 -7 -55 -16 -70 -19 -16 -3 -53 -12 -83
-20 -30 -9 -68 -18 -85 -20 -16 -3 -41 -7 -55 -10 -14 -3 -45 -8 -70 -11 -25
-3 -61 -9 -80 -13 -58 -12 -220 -4 -290 14 -135 35 -225 116 -267 240 -24 70
-24 71 -27 159 -5 115 32 212 111 293 29 29 120 98 132 98 3 1 24 10 46 22 22
11 42 21 45 21 5 1 26 7 70 22 14 5 42 12 64 15 21 3 42 7 46 10 22 14 290 22
346 11 12 -2 39 -7 60 -10 22 -4 70 -16 108 -28 54 -17 72 -28 87 -52 24 -39
24 -64 0 -95 -18 -23 -25 -25 -92 -22 -144 6 -325 5 -394 -2 -67 -6 -87 -10
-147 -23 -15 -3 -30 -5 -33 -5 -3 1 -31 -12 -63 -28 -108 -54 -179 -144 -185
-233 -3 -43 14 -101 36 -122 57 -56 114 -79 192 -79 33 0 142 12 165 18 8 2
27 7 43 10 68 13 90 18 212 46 72 17 138 32 148 35 118 29 162 35 279 37 54 1
101 7 106 12 22 26 56 164 55 226 0 55 -6 77 -34 130 -37 68 -118 156 -189
206 -123 84 -311 172 -409 190 -20 4 -83 8 -141 8 -94 0 -116 -4 -205 -35 -55
-19 -103 -38 -106 -43 -3 -5 -9 -8 -13 -7 -3 1 -32 -4 -63 -10 -62 -13 -143
-7 -154 12 -8 12 18 68 48 104 88 106 329 201 501 199 34 0 62 4 62 9 0 25
-79 109 -150 159 -151 105 -443 70 -593 -72 -92 -86 -113 -198 -63 -324 30
-74 28 -102 -9 -119 -19 -9 -30 -6 -57 12 -61 42 -99 85 -125 139 -41 86 -33
174 25 284 14 26 23 49 21 50 -10 8 -108 46 -130 51 -108 24 -160 32 -165 24
-3 -4 -9 -6 -13 -4 -13 8 -74 9 -116 1 -58 -10 -119 -42 -153 -79 -24 -27 -28
-36 -18 -52 58 -101 53 -254 -11 -324 -13 -14 -23 -27 -23 -31 0 -9 -89 -73
-106 -75 -9 -2 -27 8 -40 21 -24 24 -24 26 -8 62 31 74 43 127 40 182 -8 155
-153 276 -366 307 -58 8 -127 13 -131 10z"/>
<path d="M265 2678 c-127 -111 -188 -351 -124 -485 25 -53 45 -61 71 -28 28
35 139 113 185 129 l38 13 2 69 c2 75 22 146 57 210 l23 41 -46 13 c-45 13
-107 43 -125 61 -18 17 -45 9 -81 -23z"/>
<path d="M4765 2684 c-22 -13 -64 -32 -93 -41 -29 -9 -51 -19 -49 -22 2 -3 18
-37 36 -76 29 -61 34 -81 35 -152 1 -75 3 -83 24 -93 13 -5 27 -10 32 -10 16
0 124 -77 163 -116 l38 -38 24 26 c33 36 43 81 39 184 -3 91 -36 207 -69 244
-8 9 -15 20 -15 25 0 14 -94 95 -109 94 -9 0 -34 -12 -56 -25z"/>
</g>
</svg>
